<svg xmlns="http://www.w3.org/2000/svg" viewBox="0 0 64 64">
  <rect width="64" height="64" rx="14" fill="#1DA1F2"/>
  <path fill="#fff" d="M53 17.5c-1.9.9-4 1.4-6.1 1.7a10.7 10.7 0 0 0 4.7-5.9c-2.1 1.2-4.4 2.1-6.9 2.6a10.7 10.7 0 0 0-18.5 9.8A30.6 30.6 0 0 1 4 14.4a10.7 10.7 0 0 0 3.3 14.4c-1.8-.1-3.5-.6-4.9-1.4v.1A10.7 10.7 0 0 0 11 38c-.9.2-1.8.4-2.8.4-.7 0-1.4-.1-2-.2a10.7 10.7 0 0 0 10 7.4A21.6 21.6 0 0 1 2.9 50c-.9 0-1.7-.1-2.5-.2a30.5 30.5 0 0 0 16.5 4.8c19.8 0 30.6-16.4 30.6-30.6v-1.4c2.1-1.5 3.9-3.2 5.5-5.1Z"/>
</svg>
